<svg width="16" height="16" viewBox="0 0 16 16" fill="none" xmlns="http://www.w3.org/2000/svg">
<path fill-rule="evenodd" clip-rule="evenodd" d="M15.5 8C15.5 12.1423 12.1423 15.5 8 15.5C3.85775 15.5 0.5 12.1423 0.5 8C0.5 3.85775 3.85775 0.5 8 0.5C12.1423 0.5 15.5 3.85775 15.5 8ZM11.0225 5.7275C11.1278 5.83297 11.187 5.97594 11.187 6.125C11.187 6.27406 11.1278 6.41703 11.0225 6.5225L7.2725 10.2725C7.16703 10.3778 7.02406 10.437 6.875 10.437C6.72594 10.437 6.58297 10.3778 6.4775 10.2725L4.9775 8.7725C4.92223 8.721 4.87791 8.6589 4.84716 8.5899C4.81642 8.5209 4.79989 8.44642 4.79856 8.37089C4.79722 8.29536 4.81112 8.22034 4.83941 8.1503C4.8677 8.08026 4.90981 8.01664 4.96322 7.96322C5.01664 7.90981 5.08026 7.8677 5.1503 7.83941C5.22034 7.81112 5.29536 7.79722 5.37089 7.79856C5.44642 7.79989 5.5209 7.81642 5.5899 7.84716C5.6589 7.87791 5.721 7.92224 5.7725 7.9775L6.875 9.08L8.55125 7.403L10.2275 5.7275C10.333 5.62216 10.4759 5.56299 10.625 5.56299C10.7741 5.56299 10.917 5.62216 11.0225 5.7275Z" fill="#F95700"/>
</svg>
